# Blender v2.77 (sub 0) OBJ File: ''
# www.blender.org
mtllib ghostv1.mtl
o Cylinder
v 0.099791 0.299763 0.058313
v 0.143796 0.270769 0.056437
v 0.180571 0.198285 0.055582
v 0.181139 -0.147676 0.060644
v 0.165044 -0.160730 0.061691
v 0.133125 -0.162912 0.063398
v 0.101254 -0.137124 0.064691
v 0.040097 -0.137476 0.067905
v 0.017357 -0.163412 0.069479
v -0.008961 -0.161808 0.070834
v -0.039085 -0.134994 0.072022
v -0.098962 -0.135339 0.075169
v -0.133993 -0.164931 0.077440
v -0.170329 -0.165140 0.079349
v -0.190227 -0.145460 0.080090
v -0.189764 0.214825 0.074763
v -0.152967 0.264596 0.072093
v -0.079731 0.306002 0.068222
v 0.027391 0.307264 0.063656
v 0.100294 0.301178 -0.024761
v 0.144920 0.271775 -0.026664
v 0.182028 0.198634 -0.027528
v 0.182597 -0.148372 -0.022452
v 0.165604 -0.162154 -0.021348
v 0.132655 -0.164407 -0.019586
v 0.100744 -0.138586 -0.018291
v 0.040761 -0.138932 -0.015139
v 0.017982 -0.164913 -0.013562
v -0.009552 -0.163234 -0.012144
v -0.039634 -0.136456 -0.010958
v -0.098425 -0.136795 -0.007869
v -0.133456 -0.166387 -0.005597
v -0.170923 -0.166603 -0.003629
v -0.191686 -0.146068 -0.002854
v -0.191221 0.215308 -0.008196
v -0.153954 0.265715 -0.010900
v -0.080123 0.307457 -0.014806
v 0.027456 0.308724 -0.019396
v 0.107124 0.320397 0.018384
v 0.160187 0.285435 0.016114
v 0.201815 0.203382 0.015133
v 0.202407 -0.157821 0.020401
v 0.173209 -0.181502 0.022280
v 0.126265 -0.184711 0.024790
v 0.093806 -0.158447 0.026107
v 0.049778 -0.158701 0.028421
v 0.026469 -0.185286 0.030034
v -0.017578 -0.182601 0.032305
v -0.047102 -0.156320 0.033468
v -0.091130 -0.156574 0.035781
v -0.126161 -0.186166 0.038053
v -0.178994 -0.186470 0.040829
v -0.211492 -0.154328 0.042062
v -0.211008 0.221870 0.036518
v -0.167363 0.280902 0.033363
v -0.085446 0.327217 0.028970
v 0.028345 0.328557 0.024053
vn 0.0524 0.0147 0.9985
vn -0.0524 -0.0147 -0.9985
vn 0.0523 0.0147 0.9985
vn 0.0423 0.0206 0.9989
vn 0.0386 0.0250 0.9989
vn 0.0524 0.0153 0.9985
vn 0.0522 0.0149 0.9985
vn 0.0771 0.0346 0.9964
vn 0.0523 0.0155 0.9985
vn 0.0525 0.0149 0.9985
vn 0.0525 0.0147 0.9985
vn 0.0524 0.0146 0.9985
vn 0.0522 0.0147 0.9985
vn -0.6167 -0.6748 -0.4054
vn 0.5000 0.7285 0.4682
vn -0.6505 -0.6424 -0.4052
vn 0.0302 -0.8773 0.4790
vn -0.0765 -0.9089 -0.4099
vn 0.6707 -0.6133 -0.4172
vn 0.5709 -0.7078 -0.4161
vn -0.8735 0.0083 0.4867
vn -0.6055 -0.6305 0.4856
vn -0.5381 -0.6894 0.4849
vn 0.6776 -0.5656 0.4701
vn -0.6915 0.5371 0.4831
vn 0.5737 -0.6696 0.4718
vn -0.5706 -0.6625 0.4852
vn 0.0403 -0.9108 -0.4109
vn 0.7915 0.3960 0.4656
vn -0.0286 0.9098 -0.4141
vn -0.7447 0.5288 -0.4071
vn -0.0770 -0.0345 -0.9964
vn -0.0523 -0.0147 -0.9985
vn -0.0523 -0.0154 -0.9985
vn -0.0525 -0.0149 -0.9985
vn 0.0517 -0.0014 0.9987
vn -0.0388 -0.0249 -0.9989
vn -0.0522 -0.0147 -0.9985
vn -0.0524 -0.0153 -0.9985
vn -0.0522 -0.0148 -0.9985
vn -0.0525 -0.0147 -0.9985
vn -0.0424 -0.0206 -0.9989
vn -0.0524 -0.0146 -0.9985
vn 0.1244 0.8720 0.4735
vn 0.4871 0.7665 -0.4186
vn -0.9147 -0.0048 -0.4042
vn -0.0163 -0.9118 -0.4104
vn 0.9074 -0.0047 -0.4203
vn 0.5867 -0.6583 0.4716
vn 0.8849 0.0082 0.4656
vn -0.5848 -0.7024 -0.4056
vn -0.0288 -0.8770 0.4797
vn 0.5564 -0.7194 -0.4158
vn 0.0853 -0.8740 0.4783
vn -0.4125 0.7749 0.4789
vn 0.8071 0.4145 -0.4204
vn -0.4654 0.7843 -0.4101
vn 0.0098 0.8806 0.4737
vn 0.0641 0.9073 -0.4155
vn 0.5000 0.7285 0.4683
vn -0.6507 -0.6423 -0.4050
vn -0.8736 0.0083 0.4866
vn -0.6054 -0.6307 0.4855
vn 0.6776 -0.5655 0.4701
vn -0.6915 0.5371 0.4830
vn 0.5735 -0.6697 0.4719
vn 0.7914 0.3960 0.4657
vn -0.0284 0.9096 -0.4146
vn -0.7448 0.5288 -0.4071
vn 0.1252 0.8726 0.4722
vn 0.4872 0.7665 -0.4186
vn -0.9147 -0.0048 -0.4041
vn 0.9073 -0.0046 -0.4205
vn 0.8849 0.0083 0.4658
vn -0.0517 0.0012 -0.9987
vn -0.5848 -0.7025 -0.4056
vn -0.0287 -0.8770 0.4797
vn 0.5565 -0.7192 -0.4160
vn -0.4126 0.7745 0.4794
vn 0.8071 0.4145 -0.4205
vn -0.4651 0.7843 -0.4106
vn 0.0101 0.8803 0.4743
vn 0.0635 0.9078 -0.4145
usemtl None
s off
f 12//1 11//1 16//1
f 27//2 30//2 22//2
f 2//3 1//3 3//3
f 19//4 18//4 16//4
f 17//5 16//5 18//5
f 15//6 14//6 13//6
f 15//7 13//7 12//7
f 3//8 1//8 19//8
f 5//9 4//9 6//9
f 7//10 6//10 4//10
f 10//3 9//3 8//3
f 7//11 4//11 3//11
f 11//12 10//12 8//12
f 8//1 7//1 3//1
f 16//13 15//13 12//13
f 11//1 8//1 3//1
f 49//14 29//14 48//14
f 39//15 2//15 40//15
f 52//16 34//16 33//16
f 46//17 7//17 8//17
f 47//18 29//18 28//18
f 46//19 28//19 27//19
f 50//20 32//20 31//20
f 54//21 15//21 16//21
f 53//22 14//22 15//22
f 45//23 6//23 7//23
f 46//24 9//24 47//24
f 54//25 17//25 55//25
f 43//26 4//26 5//26
f 49//27 10//27 11//27
f 52//17 13//17 14//17
f 43//28 25//28 24//28
f 40//29 3//29 41//29
f 57//30 37//30 56//30
f 55//31 35//31 54//31
f 38//32 20//32 22//32
f 21//33 22//33 20//33
f 23//34 24//34 25//34
f 23//35 25//35 26//35
f 16//36 3//36 19//36
f 36//37 37//37 35//37
f 34//38 35//38 31//38
f 32//39 33//39 34//39
f 31//40 32//40 34//40
f 35//2 30//2 31//2
f 22//41 23//41 26//41
f 27//33 28//33 29//33
f 22//2 26//2 27//2
f 35//42 37//42 38//42
f 27//43 29//43 30//43
f 57//44 1//44 39//44
f 40//45 20//45 39//45
f 54//46 34//46 53//46
f 45//47 27//47 26//47
f 41//48 23//48 22//48
f 50//49 13//49 51//49
f 41//50 4//50 42//50
f 35//2 22//2 30//2
f 50//17 11//17 12//17
f 45//51 25//51 44//51
f 51//47 33//47 32//47
f 48//52 9//52 10//52
f 42//53 24//53 23//53
f 44//54 5//54 6//54
f 49//47 31//47 30//47
f 55//55 18//55 56//55
f 41//56 21//56 40//56
f 56//57 36//57 55//57
f 57//58 18//58 19//58
f 39//59 38//59 57//59
f 49//14 30//14 29//14
f 39//60 1//60 2//60
f 52//61 53//61 34//61
f 46//17 45//17 7//17
f 47//18 48//18 29//18
f 46//19 47//19 28//19
f 50//20 51//20 32//20
f 54//62 53//62 15//62
f 53//63 52//63 14//63
f 45//23 44//23 6//23
f 46//64 8//64 9//64
f 54//65 16//65 17//65
f 43//66 42//66 4//66
f 49//27 48//27 10//27
f 52//17 51//17 13//17
f 43//28 44//28 25//28
f 40//67 2//67 3//67
f 57//68 38//68 37//68
f 55//69 36//69 35//69
f 16//1 11//1 3//1
f 57//70 19//70 1//70
f 40//71 21//71 20//71
f 54//72 35//72 34//72
f 45//47 46//47 27//47
f 41//73 42//73 23//73
f 50//49 12//49 13//49
f 41//74 3//74 4//74
f 35//75 38//75 22//75
f 50//17 49//17 11//17
f 45//76 26//76 25//76
f 51//47 52//47 33//47
f 48//77 47//77 9//77
f 42//78 43//78 24//78
f 44//54 43//54 5//54
f 49//47 50//47 31//47
f 55//79 17//79 18//79
f 41//80 22//80 21//80
f 56//81 37//81 36//81
f 57//82 56//82 18//82
f 39//83 20//83 38//83
