# Blender v2.78 (sub 0) OBJ File: 'pacmanGhost.blend'
# www.blender.org
mtllib ghostv2.mtl
o Cube.001
v 0.584200 -0.637520 0.137244
v 0.584200 -0.543003 0.137244
v 0.584200 -0.637520 -0.137244
v 0.584200 -0.543003 -0.137244
v 0.680654 -0.637520 0.137244
v 0.680654 -0.637520 -0.137244
v -0.681882 -0.630771 0.137244
v -0.681882 -0.530919 0.137244
v -0.681882 -0.630771 -0.137244
v -0.681882 -0.530919 -0.137244
v -0.585428 -0.630771 0.137244
v -0.585428 -0.530919 0.137244
v -0.585428 -0.630771 -0.137244
v -0.585428 -0.530919 -0.137244
v 0.102899 -0.633405 0.137244
v 0.102899 -0.633405 -0.137244
v 0.289664 -0.633405 0.137244
v 0.289664 -0.540361 0.137244
v 0.289664 -0.633405 -0.137244
v 0.289664 -0.540361 -0.137244
v -0.289895 -0.634778 0.137244
v -0.289895 -0.546655 0.137244
v -0.289895 -0.634778 -0.137244
v -0.289895 -0.546655 -0.137244
v -0.103130 -0.634778 0.137244
v -0.103130 -0.634778 -0.137244
v 0.493889 -0.543003 0.137244
v 0.493889 -0.459855 0.137244
v 0.493889 -0.543003 -0.137244
v 0.493889 -0.459855 -0.137244
v 0.680654 -0.543003 0.137244
v 0.680654 -0.543003 -0.137244
v -0.681882 -0.459855 0.137244
v -0.681882 -0.459855 -0.137244
v -0.495117 -0.530919 0.137244
v -0.495117 -0.459855 0.137244
v -0.495117 -0.530919 -0.137244
v -0.495117 -0.459855 -0.137244
v 0.102899 -0.540361 0.137244
v 0.102899 -0.459855 0.137244
v 0.102899 -0.540361 -0.137244
v 0.102899 -0.459855 -0.137244
v 0.385277 -0.540361 0.137244
v 0.385277 -0.459855 0.137244
v 0.385277 -0.540361 -0.137244
v 0.385277 -0.459855 -0.137244
v -0.385509 -0.546655 0.137244
v -0.385509 -0.459855 0.137244
v -0.385509 -0.546655 -0.137244
v -0.385509 -0.459855 -0.137244
v -0.103130 -0.546655 0.137244
v -0.103130 -0.459855 0.137244
v -0.103130 -0.546655 -0.137244
v -0.103130 -0.459855 -0.137244
v -0.681541 0.110611 0.137244
v -0.681541 0.110611 -0.137244
v 0.680654 -0.459855 0.137244
v 0.680654 0.110611 0.137244
v 0.680654 -0.459855 -0.137244
v 0.680654 0.110611 -0.137244
v -0.384145 0.477851 0.137244
v -0.384145 0.590422 0.137244
v -0.384145 0.477851 -0.137244
v -0.384145 0.590422 -0.137244
v 0.383258 0.477851 0.137244
v 0.383258 0.590422 0.137244
v 0.383258 0.477851 -0.137244
v 0.383258 0.590422 -0.137244
v -0.476594 0.386911 0.137244
v -0.476594 0.477851 0.137244
v -0.476594 0.386911 -0.137244
v -0.476594 0.477851 -0.137244
v 0.475707 0.386911 0.137244
v 0.475707 0.477851 0.137244
v 0.475707 0.386911 -0.137244
v 0.475707 0.477851 -0.137244
v -0.582061 0.110611 0.137244
v -0.582061 0.386911 0.137244
v -0.582061 0.110611 -0.137244
v -0.582061 0.386911 -0.137244
v 0.581174 0.110611 0.137244
v 0.581174 0.386911 0.137244
v 0.581174 0.110611 -0.137244
v 0.581174 0.386911 -0.137244
v -0.191395 0.590422 0.137244
v -0.191395 0.677285 0.137244
v -0.191395 0.590422 -0.137244
v -0.191395 0.677285 -0.137244
v 0.190508 0.590422 0.137244
v 0.190508 0.677285 0.137244
v 0.190508 0.590422 -0.137244
v 0.190508 0.677285 -0.137244
vn -1.0000 0.0000 0.0000
vn 0.0000 0.0000 -1.0000
vn 1.0000 0.0000 0.0000
vn 0.0000 0.0000 1.0000
vn 0.0000 -1.0000 0.0000
vn 0.0000 1.0000 0.0000
vn -1.0000 0.0006 0.0000
usemtl None
s off
f 1//1 2//1 4//1 3//1
f 3//2 4//2 32//2 6//2
f 6//3 32//3 31//3 5//3
f 5//4 31//4 2//4 1//4
f 3//5 6//5 5//5 1//5
f 32//6 4//6 2//6 31//6
f 7//1 8//1 10//1 9//1
f 9//2 10//2 14//2 13//2
f 13//3 14//3 12//3 11//3
f 11//4 12//4 8//4 7//4
f 9//5 13//5 11//5 7//5
f 14//6 10//6 8//6 12//6
f 15//1 39//1 41//1 16//1
f 16//2 41//2 20//2 19//2
f 19//3 20//3 18//3 17//3
f 17//4 18//4 39//4 15//4
f 16//5 19//5 17//5 15//5
f 20//6 41//6 39//6 18//6
f 21//1 22//1 24//1 23//1
f 23//2 24//2 53//2 26//2
f 26//3 53//3 51//3 25//3
f 25//4 51//4 22//4 21//4
f 23//5 26//5 25//5 21//5
f 53//6 24//6 22//6 51//6
f 27//1 28//1 30//1 29//1
f 29//2 30//2 59//2 32//2
f 32//3 59//3 57//3 31//3
f 31//4 57//4 28//4 27//4
f 29//5 32//5 31//5 27//5
f 59//6 30//6 28//6 57//6
f 8//1 33//1 34//1 10//1
f 10//2 34//2 38//2 37//2
f 37//3 38//3 36//3 35//3
f 35//4 36//4 33//4 8//4
f 10//5 37//5 35//5 8//5
f 38//6 34//6 33//6 36//6
f 39//1 40//1 42//1 41//1
f 41//2 42//2 46//2 45//2
f 45//3 46//3 44//3 43//3
f 43//4 44//4 40//4 39//4
f 41//5 45//5 43//5 39//5
f 46//6 42//6 40//6 44//6
f 47//1 48//1 50//1 49//1
f 49//2 50//2 54//2 53//2
f 53//3 54//3 52//3 51//3
f 51//4 52//4 48//4 47//4
f 49//5 53//5 51//5 47//5
f 54//6 50//6 48//6 52//6
f 33//7 55//7 56//7 34//7
f 34//2 56//2 60//2 59//2
f 59//3 60//3 58//3 57//3
f 57//4 58//4 55//4 33//4
f 34//5 59//5 57//5 33//5
f 60//6 56//6 55//6 58//6
f 61//1 62//1 64//1 63//1
f 63//2 64//2 68//2 67//2
f 67//3 68//3 66//3 65//3
f 65//4 66//4 62//4 61//4
f 63//5 67//5 65//5 61//5
f 68//6 64//6 62//6 66//6
f 69//1 70//1 72//1 71//1
f 71//2 72//2 76//2 75//2
f 75//3 76//3 74//3 73//3
f 73//4 74//4 70//4 69//4
f 71//5 75//5 73//5 69//5
f 76//6 72//6 70//6 74//6
f 77//1 78//1 80//1 79//1
f 79//2 80//2 84//2 83//2
f 83//3 84//3 82//3 81//3
f 81//4 82//4 78//4 77//4
f 79//5 83//5 81//5 77//5
f 84//6 80//6 78//6 82//6
f 85//1 86//1 88//1 87//1
f 87//2 88//2 92//2 91//2
f 91//3 92//3 90//3 89//3
f 89//4 90//4 86//4 85//4
f 87//5 91//5 89//5 85//5
f 92//6 88//6 86//6 90//6
